# xmcd
# 
# Track frame offsets:
#     150
#     11155
#     21545
#     30222
#     40590
#     49755
#     62145
#     74020
#     87877
#     99330
#     108397
#     118437
#     132010
#     140880
#     149205
#     159205
#     169510
#     181025
#     190952
#     200010
#     209690
#     217900
#     229632
#     242315
# 
# Disc length: 3345
# 
# Revision: 7
# Processed by: cddbd v1.5.2PL0 Copyright (c) Steve Scherf et al.
# Submitted via: fre:ac v1.0.31
# 
DISCID=5b0d0f18
DTITLE=Jonny Cash - The Fabulous Johnny Cash and Songs Of Our Soil
DYEAR=1999
DGENRE=Country
TTITLE0=Run Softly, Blue River
TTITLE1=Frankie's Man, Johnny
TTITLE2=That's All Over
TTITLE3=The Troubadour
TTITLE4=One More Ride
TTITLE5=That's Enough
TTITLE6=I Still Miss Someone
TTITLE7=Don't Take Your Guns To Town
TTITLE8=I'd Rather Die Young
TTITLE9=Pickin' Time
TTITLE10=Shepherd Of My Heart
TTITLE11=Supper-Time
TTITLE12=Drink To Me
TTITLE13=Five Feet High And Rising
TTITLE14=The Man On The Hill
TTITLE15=Hank And Joe And Me
TTITLE16=Clementine
TTITLE17=The Great Speckled Bird
TTITLE18=I Want To Go Home
TTITLE19=The Caretaker
TTITLE20=Old Apache Squaw
TTITLE21=Don't Step On Mother's Roses
TTITLE22=My Grandfather's Clock
TTITLE23=It Could Be You (Instead Of Him)
EXTD=Year: 1999
EXTT0=
EXTT1=
EXTT2=
EXTT3=
EXTT4=
EXTT5=
EXTT6=
EXTT7=
EXTT8=
EXTT9=
EXTT10=
EXTT11=
EXTT12=
EXTT13=
EXTT14=
EXTT15=
EXTT16=
EXTT17=
EXTT18=
EXTT19=
EXTT20=
EXTT21=
EXTT22=
EXTT23=
PLAYORDER=
